<!-- archeglyph version=1 --><svg xmlns="http://www.w3.org/2000/svg" viewBox="-4.00 -4.00 814.40 269.00" width="814.40" height="269.00"><defs><marker id="ah-filled" markerWidth="10" markerHeight="10" refX="10" refY="5" orient="auto"><path d="M0,0 L10,5 L0,10 Z" fill="context-stroke" stroke="none"/></marker></defs><rect x="-4.00" y="-4.00" width="814.40" height="269.00" fill="#0f1724"/><g id="node-cli" data-element-id="cli" data-kind="node"><rect x="12.00" y="29.67" width="120.00" height="40.00" rx="2.00" fill="#122238" fill-opacity="0.00" stroke="#38bdf8" stroke-width="1.20"/><text x="72.00" y="49.67" text-anchor="middle" dominant-baseline="central" fill="#bfe3ff"><tspan x="72.00" dy="0">cli</tspan></text></g><g id="node-core" data-element-id="core" data-kind="node"><rect x="292.00" y="169.00" width="120.00" height="40.00" rx="2.00" fill="#122238" fill-opacity="0.00" stroke="#38bdf8" stroke-width="1.20"/><text x="352.00" y="189.00" text-anchor="middle" dominant-baseline="central" fill="#bfe3ff"><tspan x="352.00" dy="0">core</tspan></text></g><g id="node-editor" data-element-id="editor" data-kind="node"><rect x="152.00" y="209.00" width="120.00" height="40.00" rx="2.00" fill="#122238" fill-opacity="0.00" stroke="#38bdf8" stroke-width="1.20"/><text x="212.00" y="229.00" text-anchor="middle" dominant-baseline="central" fill="#bfe3ff"><tspan x="212.00" dy="0">editor</tspan></text></g><g id="node-importer-archegraph" data-element-id="importer-archegraph" data-kind="node"><rect x="442.00" y="135.67" width="182.40" height="40.00" rx="2.00" fill="#122238" fill-opacity="0.00" stroke="#38bdf8" stroke-width="1.20"/><text x="533.20" y="155.67" text-anchor="middle" dominant-baseline="central" fill="#bfe3ff"><tspan x="533.20" dy="0">importer-archegraph</tspan></text></g><g id="node-ops" data-element-id="ops" data-kind="node"><rect x="152.00" y="29.67" width="120.00" height="40.00" rx="2.00" fill="#122238" fill-opacity="0.00" stroke="#38bdf8" stroke-width="1.20"/><text x="212.00" y="49.67" text-anchor="middle" dominant-baseline="central" fill="#bfe3ff"><tspan x="212.00" dy="0">ops</tspan></text></g><g id="node-proto" data-element-id="proto" data-kind="node"><rect x="674.40" y="12.00" width="120.00" height="40.00" rx="2.00" fill="#122238" fill-opacity="0.00" stroke="#38bdf8" stroke-width="1.20"/><text x="734.40" y="32.00" text-anchor="middle" dominant-baseline="central" fill="#bfe3ff"><tspan x="734.40" dy="0">proto</tspan></text></g><g id="node-themes" data-element-id="themes" data-kind="node"><rect x="457.60" y="39.67" width="120.00" height="40.00" rx="2.00" fill="#122238" fill-opacity="0.00" stroke="#38bdf8" stroke-width="1.20"/><text x="517.60" y="59.67" text-anchor="middle" dominant-baseline="central" fill="#bfe3ff"><tspan x="517.60" dy="0">themes</tspan></text></g><g id="edge-cli__ops" data-element-id="cli__ops" data-kind="edge"><path d="M 132.00,49.67 L 152.00,49.67" fill="none" stroke="transparent" stroke-width="12" style="pointer-events: stroke"/><path d="M 132.00,49.67 L 152.00,49.67" fill="none" stroke="#2dd4bf" stroke-width="1.20" marker-end="url(#ah-filled)"/><text x="142.00" y="49.67" text-anchor="middle" dominant-baseline="central" fill="#bfe3ff"><tspan x="142.00" dy="0"></tspan></text></g><g id="edge-core__proto" data-element-id="core__proto" data-kind="edge"><path d="M 412.00,195.67 L 654.40,195.67 L 654.40,38.67 L 674.40,38.67" fill="none" stroke="transparent" stroke-width="12" style="pointer-events: stroke"/><path d="M 412.00,195.67 L 654.40,195.67 L 654.40,38.67 L 674.40,38.67" fill="none" stroke="#2dd4bf" stroke-width="1.20" marker-end="url(#ah-filled)"/><text x="543.20" y="117.17" text-anchor="middle" dominant-baseline="central" fill="#bfe3ff"><tspan x="543.20" dy="0"></tspan></text></g><g id="edge-core__themes" data-element-id="core__themes" data-kind="edge"><path d="M 412.00,182.33 L 422.00,182.33 L 422.00,59.67 L 457.60,59.67" fill="none" stroke="transparent" stroke-width="12" style="pointer-events: stroke"/><path d="M 412.00,182.33 L 422.00,182.33 L 422.00,59.67 L 457.60,59.67" fill="none" stroke="#2dd4bf" stroke-width="1.20" marker-end="url(#ah-filled)"/><text x="434.80" y="121.00" text-anchor="middle" dominant-baseline="central" fill="#bfe3ff"><tspan x="434.80" dy="0"></tspan></text></g><g id="edge-editor__core" data-element-id="editor__core" data-kind="edge"><path d="M 272.00,219.00 L 282.00,219.00 L 282.00,195.67 L 292.00,195.67" fill="none" stroke="transparent" stroke-width="12" style="pointer-events: stroke"/><path d="M 272.00,219.00 L 282.00,219.00 L 282.00,195.67 L 292.00,195.67" fill="none" stroke="#2dd4bf" stroke-width="1.20" marker-end="url(#ah-filled)"/><text x="282.00" y="207.33" text-anchor="middle" dominant-baseline="central" fill="#bfe3ff"><tspan x="282.00" dy="0"></tspan></text></g><g id="edge-editor__proto" data-element-id="editor__proto" data-kind="edge"><path d="M 272.00,239.00 L 282.00,239.00 L 282.00,240.00 L 664.40,240.00 L 664.40,45.33 L 674.40,45.33" fill="none" stroke="transparent" stroke-width="12" style="pointer-events: stroke"/><path d="M 272.00,239.00 L 282.00,239.00 L 282.00,240.00 L 664.40,240.00 L 664.40,45.33 L 674.40,45.33" fill="none" stroke="#2dd4bf" stroke-width="1.20" marker-end="url(#ah-filled)"/><text x="473.20" y="142.17" text-anchor="middle" dominant-baseline="central" fill="#bfe3ff"><tspan x="473.20" dy="0"></tspan></text></g><g id="edge-editor__themes" data-element-id="editor__themes" data-kind="edge"><path d="M 272.00,229.00 L 432.00,229.00 L 432.00,69.67 L 457.60,69.67" fill="none" stroke="transparent" stroke-width="12" style="pointer-events: stroke"/><path d="M 272.00,229.00 L 432.00,229.00 L 432.00,69.67 L 457.60,69.67" fill="none" stroke="#2dd4bf" stroke-width="1.20" marker-end="url(#ah-filled)"/><text x="364.80" y="149.33" text-anchor="middle" dominant-baseline="central" fill="#bfe3ff"><tspan x="364.80" dy="0"></tspan></text></g><g id="edge-importer-archegraph__proto" data-element-id="importer-archegraph__proto" data-kind="edge"><path d="M 624.40,155.67 L 644.40,155.67 L 644.40,32.00 L 674.40,32.00" fill="none" stroke="transparent" stroke-width="12" style="pointer-events: stroke"/><path d="M 624.40,155.67 L 644.40,155.67 L 644.40,32.00 L 674.40,32.00" fill="none" stroke="#2dd4bf" stroke-width="1.20" marker-end="url(#ah-filled)"/><text x="649.40" y="93.83" text-anchor="middle" dominant-baseline="central" fill="#bfe3ff"><tspan x="649.40" dy="0"></tspan></text></g><g id="edge-ops__core" data-element-id="ops__core" data-kind="edge"><path d="M 272.00,59.67 L 282.00,59.67 L 282.00,182.33 L 292.00,182.33" fill="none" stroke="transparent" stroke-width="12" style="pointer-events: stroke"/><path d="M 272.00,59.67 L 282.00,59.67 L 282.00,182.33 L 292.00,182.33" fill="none" stroke="#2dd4bf" stroke-width="1.20" marker-end="url(#ah-filled)"/><text x="282.00" y="121.00" text-anchor="middle" dominant-baseline="central" fill="#bfe3ff"><tspan x="282.00" dy="0"></tspan></text></g><g id="edge-ops__proto" data-element-id="ops__proto" data-kind="edge"><path d="M 272.00,39.67 L 282.00,39.67 L 282.00,18.67 L 674.40,18.67" fill="none" stroke="transparent" stroke-width="12" style="pointer-events: stroke"/><path d="M 272.00,39.67 L 282.00,39.67 L 282.00,18.67 L 674.40,18.67" fill="none" stroke="#2dd4bf" stroke-width="1.20" marker-end="url(#ah-filled)"/><text x="473.20" y="29.17" text-anchor="middle" dominant-baseline="central" fill="#bfe3ff"><tspan x="473.20" dy="0"></tspan></text></g><g id="edge-ops__themes" data-element-id="ops__themes" data-kind="edge"><path d="M 272.00,49.67 L 457.60,49.67" fill="none" stroke="transparent" stroke-width="12" style="pointer-events: stroke"/><path d="M 272.00,49.67 L 457.60,49.67" fill="none" stroke="#2dd4bf" stroke-width="1.20" marker-end="url(#ah-filled)"/><text x="364.80" y="49.67" text-anchor="middle" dominant-baseline="central" fill="#bfe3ff"><tspan x="364.80" dy="0"></tspan></text></g><g id="edge-themes__proto" data-element-id="themes__proto" data-kind="edge"><path d="M 577.60,59.67 L 634.40,59.67 L 634.40,25.33 L 674.40,25.33" fill="none" stroke="transparent" stroke-width="12" style="pointer-events: stroke"/><path d="M 577.60,59.67 L 634.40,59.67 L 634.40,25.33 L 674.40,25.33" fill="none" stroke="#2dd4bf" stroke-width="1.20" marker-end="url(#ah-filled)"/><text x="626.00" y="42.50" text-anchor="middle" dominant-baseline="central" fill="#bfe3ff"><tspan x="626.00" dy="0"></tspan></text></g></svg>