<!-- archeglyph version=1 --><svg xmlns="http://www.w3.org/2000/svg" viewBox="-4.00 -179.18 729.00 517.04" width="729.00" height="517.04"><rect x="-4.00" y="-179.18" width="729.00" height="517.04" fill="#1a1b26"/><g id="group-core" data-element-id="core" data-kind="group"><rect x="157.00" y="53.33" width="552.00" height="256.51" rx="3.00" fill="#9aa5ce" fill-opacity="0.06" stroke="#9aa5ce" stroke-width="1.00" stroke-dasharray="2,3"/><text x="169.00" y="75.73" text-anchor="start" fill="#9aa5ce"><tspan x="169.00" dy="0">@archeglyph/core</tspan></text></g><g id="node-diagram" data-element-id="diagram" data-kind="node"><rect x="12.00" y="281.86" width="120.00" height="40.00" rx="0.00" fill="#000000" stroke="#FFFFFF"/><text x="72.00" y="301.86" text-anchor="middle" dominant-baseline="central" fill="#c0caf5"><tspan x="72.00" dy="0">diagram.json</tspan></text></g><g id="node-layout" data-element-id="layout" data-kind="node"><rect x="449.00" y="-163.18" width="120.00" height="40.00" rx="0.00" fill="#000000" stroke="#FFFFFF"/><text x="509.00" y="-143.18" text-anchor="middle" dominant-baseline="central" fill="#c0caf5"><tspan x="509.00" dy="0">layout</tspan></text></g><g id="node-load" data-element-id="load" data-kind="node"><rect x="169.00" y="65.33" width="120.00" height="40.00" rx="0.00" fill="#000000" stroke="#FFFFFF"/><text x="229.00" y="85.33" text-anchor="middle" dominant-baseline="central" fill="#c0caf5"><tspan x="229.00" dy="0">load</tspan></text></g><g id="node-render" data-element-id="render" data-kind="node"><rect x="589.00" y="111.84" width="120.00" height="40.00" rx="0.00" fill="#000000" stroke="#FFFFFF"/><text x="649.00" y="131.84" text-anchor="middle" dominant-baseline="central" fill="#c0caf5"><tspan x="649.00" dy="0">render</tspan></text></g><g id="node-resolve" data-element-id="resolve" data-kind="node"><rect x="309.00" y="162.09" width="120.00" height="40.00" rx="0.00" fill="#000000" stroke="#FFFFFF"/><text x="369.00" y="182.09" text-anchor="middle" dominant-baseline="central" fill="#c0caf5"><tspan x="369.00" dy="0">resolve</tspan></text></g><g id="node-stylesheet" data-element-id="stylesheet" data-kind="node"><rect x="12.00" y="-96.45" width="120.00" height="40.00" rx="0.00" fill="#000000" stroke="#FFFFFF"/><text x="72.00" y="-76.45" text-anchor="middle" dominant-baseline="central" fill="#c0caf5"><tspan x="72.00" dy="0">style.json</tspan></text></g><g id="node-svg" data-element-id="svg" data-kind="node"><rect x="572.00" y="-25.48" width="120.00" height="40.00" rx="0.00" fill="#000000" stroke="#FFFFFF"/><text x="632.00" y="-5.48" text-anchor="middle" dominant-baseline="central" fill="#c0caf5"><tspan x="632.00" dy="0">out.svg</tspan></text></g><g id="edge-diagram__load" data-element-id="diagram__load" data-kind="edge"><path d="M 86.50,281.86 L 214.50,105.33" fill="none" stroke="transparent" stroke-width="12" style="pointer-events: stroke"/><path d="M 86.50,281.86 L 214.50,105.33" fill="none" stroke="#FFFFFF" stroke-width="1.00"/></g><g id="edge-layout__render" data-element-id="layout__render" data-kind="edge"><path d="M 519.18,-123.18 L 638.82,111.84" fill="none" stroke="transparent" stroke-width="12" style="pointer-events: stroke"/><path d="M 519.18,-123.18 L 638.82,111.84" fill="none" stroke="#FFFFFF" stroke-width="1.00"/></g><g id="edge-load__resolve" data-element-id="load__resolve" data-kind="edge"><path d="M 257.94,105.33 L 340.06,162.09" fill="none" stroke="transparent" stroke-width="12" style="pointer-events: stroke"/><path d="M 257.94,105.33 L 340.06,162.09" fill="none" stroke="#FFFFFF" stroke-width="1.00"/></g><g id="edge-render__svg" data-element-id="render__svg" data-kind="edge"><path d="M 646.52,111.84 L 634.48,14.52" fill="none" stroke="transparent" stroke-width="12" style="pointer-events: stroke"/><path d="M 646.52,111.84 L 634.48,14.52" fill="none" stroke="#FFFFFF" stroke-width="1.00"/></g><g id="edge-resolve__layout" data-element-id="resolve__layout" data-kind="edge"><path d="M 377.61,162.09 L 500.39,-123.18" fill="none" stroke="transparent" stroke-width="12" style="pointer-events: stroke"/><path d="M 377.61,162.09 L 500.39,-123.18" fill="none" stroke="#FFFFFF" stroke-width="1.00"/></g><g id="edge-stylesheet__load" data-element-id="stylesheet__load" data-kind="edge"><path d="M 91.41,-56.45 L 209.59,65.33" fill="none" stroke="transparent" stroke-width="12" style="pointer-events: stroke"/><path d="M 91.41,-56.45 L 209.59,65.33" fill="none" stroke="#FFFFFF" stroke-width="1.00"/></g></svg>