<!-- archeglyph version=1 --><svg xmlns="http://www.w3.org/2000/svg" viewBox="0.00 4.00 415.60 328.00" width="415.60" height="328.00"><rect x="0.00" y="4.00" width="415.60" height="328.00" fill="#F5F5F5"/><g id="group-hosted" data-element-id="hosted" data-kind="group"><rect x="230.00" y="20.00" width="169.60" height="296.00" rx="3.00" fill="#8A8A8A" fill-opacity="0.06" stroke="#8A8A8A" stroke-width="1.00" stroke-dasharray="2,3"/><text x="243.00" y="33.00" text-anchor="start" fill="#8A8A8A"><tspan x="243.00" dy="0">Someone else's servers</tspan></text></g><g id="node-analytics" data-element-id="analytics" data-kind="node"><rect x="246.00" y="276.00" width="153.60" height="40.00" rx="0.00" fill="#FFFFFF" stroke="#000000"/><text x="322.80" y="296.00" text-anchor="middle" dominant-baseline="central" fill="#1a1a1a"><tspan x="322.80" dy="0">Vercel Analytics</tspan></text></g><g id="node-auth" data-element-id="auth" data-kind="node"><rect x="246.00" y="36.00" width="120.00" height="40.00" rx="0.00" fill="#FFFFFF" stroke="#000000"/><text x="306.00" y="56.00" text-anchor="middle" dominant-baseline="central" fill="#1a1a1a"><tspan x="306.00" dy="0">Clerk</tspan></text></g><g id="node-cache" data-element-id="cache" data-kind="node"><rect x="246.00" y="196.00" width="124.80" height="40.00" rx="0.00" fill="#FFFFFF" stroke="#000000"/><text x="308.40" y="216.00" text-anchor="middle" dominant-baseline="central" fill="#1a1a1a"><tspan x="308.40" dy="0">Upstash Redis</tspan></text></g><g id="node-db" data-element-id="db" data-kind="node"><rect x="246.00" y="116.00" width="120.00" height="40.00" rx="0.00" fill="#FFFFFF" stroke="#000000"/><text x="306.00" y="136.00" text-anchor="middle" dominant-baseline="central" fill="#1a1a1a"><tspan x="306.00" dy="0">PlanetScale</tspan></text></g><g id="node-web" data-element-id="web" data-kind="node"><rect x="16.00" y="110.00" width="120.00" height="40.00" rx="0.00" fill="#FFFFFF" stroke="#000000"/><text x="76.00" y="130.00" text-anchor="middle" dominant-baseline="central" fill="#1a1a1a"><tspan x="76.00" dy="0">Vercel</tspan></text></g><g id="edge-web__analytics" data-element-id="web__analytics" data-kind="edge"><path d="M 105.73,150.00 L 293.07,276.00" fill="none" stroke="transparent" stroke-width="12" style="pointer-events: stroke"/><path d="M 105.73,150.00 L 293.07,276.00" fill="none" stroke="#000000" stroke-width="1.00"/></g><g id="edge-web__auth" data-element-id="web__auth" data-kind="edge"><path d="M 136.00,110.70 L 246.00,75.30" fill="none" stroke="transparent" stroke-width="12" style="pointer-events: stroke"/><path d="M 136.00,110.70 L 246.00,75.30" fill="none" stroke="#000000" stroke-width="1.00"/></g><g id="edge-web__cache" data-element-id="web__cache" data-kind="edge"><path d="M 130.05,150.00 L 254.35,196.00" fill="none" stroke="transparent" stroke-width="12" style="pointer-events: stroke"/><path d="M 130.05,150.00 L 254.35,196.00" fill="none" stroke="#000000" stroke-width="1.00"/></g><g id="edge-web__db" data-element-id="web__db" data-kind="edge"><path d="M 136.00,131.57 L 246.00,134.43" fill="none" stroke="transparent" stroke-width="12" style="pointer-events: stroke"/><path d="M 136.00,131.57 L 246.00,134.43" fill="none" stroke="#000000" stroke-width="1.00"/></g></svg>